<svg width="42" height="43" viewBox="0 0 42 43" fill="none" xmlns="http://www.w3.org/2000/svg">
<g filter="url(#filter0_d_2_190)">
<path d="M21 7C21.9665 7 22.75 7.7835 22.75 8.75V19.25H33.25C34.2165 19.25 35 20.0335 35 21C35 21.9665 34.2165 22.75 33.25 22.75H22.75V33.25C22.75 34.2165 21.9665 35 21 35C20.0335 35 19.25 34.2165 19.25 33.25V22.75H8.75C7.7835 22.75 7 21.9665 7 21C7 20.0335 7.7835 19.25 8.75 19.25H19.25V8.75C19.25 7.7835 20.0335 7 21 7Z" fill="#E7E7E7"/>
</g>
<defs>
<filter id="filter0_d_2_190" x="-4" y="0" width="50" height="50" filterUnits="userSpaceOnUse" color-interpolation-filters="sRGB">
<feFlood flood-opacity="0" result="BackgroundImageFix"/>
<feColorMatrix in="SourceAlpha" type="matrix" values="0 0 0 0 0 0 0 0 0 0 0 0 0 0 0 0 0 0 127 0" result="hardAlpha"/>
<feOffset dy="4"/>
<feGaussianBlur stdDeviation="2"/>
<feComposite in2="hardAlpha" operator="out"/>
<feColorMatrix type="matrix" values="0 0 0 0 0 0 0 0 0 0 0 0 0 0 0 0 0 0 0.25 0"/>
<feBlend mode="normal" in2="BackgroundImageFix" result="effect1_dropShadow_2_190"/>
<feBlend mode="normal" in="SourceGraphic" in2="effect1_dropShadow_2_190" result="shape"/>
</filter>
</defs>
</svg>
